<?xml version="1.0" encoding="UTF-8" standalone="no"?>
<!-- Created with Inkscape (http://www.inkscape.org/) -->

<svg
   xmlns:dc="http://purl.org/dc/elements/1.1/"
   xmlns:cc="http://creativecommons.org/ns#"
   xmlns:rdf="http://www.w3.org/1999/02/22-rdf-syntax-ns#"
   xmlns:svg="http://www.w3.org/2000/svg"
   xmlns="http://www.w3.org/2000/svg"
   xmlns:sodipodi="http://sodipodi.sourceforge.net/DTD/sodipodi-0.dtd"
   xmlns:inkscape="http://www.inkscape.org/namespaces/inkscape"
   width="1024"
   height="460"
   viewBox="0 0 270.93333 121.70833"
   version="1.1"
   id="svg8"
   inkscape:version="0.92.2 (5c3e80d, 2017-08-06)"
   sodipodi:docname="logojauria.svg">
  <defs
     id="defs2">
    <clipPath
       id="clipPath2487"
       clipPathUnits="userSpaceOnUse">
      <path
         inkscape:connector-curvature="0"
         id="path2485"
         d="M 0,792 H 612 V 0 H 0 Z" />
    </clipPath>
    <pattern
       id="pattern2611"
       height="54.333"
       width="54.3335"
       y="0"
       x="0"
       patternUnits="userSpaceOnUse"
       patternTransform="matrix(0.554794,0,0,0.554794,-3721.6691,3641.5275)">
      <path
         id="path2609"
         style="fill:#1c7aab;fill-opacity:1;fill-rule:nonzero;stroke:none"
         d="M 54.333,0 0,0 l 0,54.333 54.333,0 0,-54.333 z" />
    </pattern>
    <pattern
       id="pattern2623"
       height="54.333"
       width="54.3335"
       y="0"
       x="0"
       patternUnits="userSpaceOnUse"
       patternTransform="matrix(0.554794,0,0,0.554794,-3721.6691,3641.5275)">
      <path
         id="path2621"
         style="fill:#1c7aab;fill-opacity:1;fill-rule:nonzero;stroke:none"
         d="M 54.333,0 0,0 l 0,54.333 54.333,0 0,-54.333 z" />
    </pattern>
    <pattern
       id="pattern2635"
       height="54.333"
       width="54.3335"
       y="0"
       x="0"
       patternUnits="userSpaceOnUse"
       patternTransform="matrix(0.554794,0,0,0.554794,-3721.6691,3641.5275)">
      <path
         id="path2633"
         style="fill:#1c7aab;fill-opacity:1;fill-rule:nonzero;stroke:none"
         d="M 54.333,0 0,0 l 0,54.333 54.333,0 0,-54.333 z" />
    </pattern>
    <pattern
       id="pattern2647"
       height="54.333"
       width="54.3335"
       y="0"
       x="0"
       patternUnits="userSpaceOnUse"
       patternTransform="matrix(0.554794,0,0,0.554794,-3721.6691,3641.5275)">
      <path
         id="path2645"
         style="fill:#1c7aab;fill-opacity:1;fill-rule:nonzero;stroke:none"
         d="M 54.333,0 0,0 l 0,54.333 54.333,0 0,-54.333 z" />
    </pattern>
    <pattern
       id="pattern2659"
       height="54.333"
       width="54.3335"
       y="0"
       x="0"
       patternUnits="userSpaceOnUse"
       patternTransform="matrix(0.554794,0,0,0.554794,-3721.6691,3641.5275)">
      <path
         id="path2657"
         style="fill:#1c7aab;fill-opacity:1;fill-rule:nonzero;stroke:none"
         d="M 54.333,0 0,0 l 0,54.333 54.333,0 0,-54.333 z" />
    </pattern>
    <pattern
       id="pattern2753"
       height="54.333"
       width="54.333"
       y="0"
       x="0"
       patternUnits="userSpaceOnUse"
       patternTransform="translate(-227.8691,145.4775)">
      <path
         id="path2751"
         style="fill:#f89826;fill-opacity:1;fill-rule:nonzero;stroke:none"
         d="M 54.333,0 0,0 l 0,54.333 54.333,0 0,-54.333 z" />
    </pattern>
    <pattern
       id="pattern2799"
       height="54.333"
       width="54.333"
       y="0"
       x="0"
       patternUnits="userSpaceOnUse"
       patternTransform="matrix(0.554794,0,0,0.554794,-3701.3591,3641.5275)">
      <path
         id="path2797"
         style="fill:#f89826;fill-opacity:1;fill-rule:nonzero;stroke:none"
         d="M 54.333,0 0,0 l 0,54.333 54.333,0 0,-54.333 z" />
    </pattern>
    <pattern
       id="pattern2811"
       height="54.333"
       width="54.333"
       y="0"
       x="0"
       patternUnits="userSpaceOnUse"
       patternTransform="matrix(0.554794,0,0,0.554794,-3701.3591,3641.5275)">
      <path
         id="path2809"
         style="fill:#f89826;fill-opacity:1;fill-rule:nonzero;stroke:none"
         d="M 54.333,0 0,0 l 0,54.333 54.333,0 0,-54.333 z" />
    </pattern>
    <pattern
       id="pattern2823"
       height="54.333"
       width="54.333"
       y="0"
       x="0"
       patternUnits="userSpaceOnUse"
       patternTransform="matrix(0.554794,0,0,0.554794,-3701.3591,3641.5275)">
      <path
         id="path2821"
         style="fill:#f89826;fill-opacity:1;fill-rule:nonzero;stroke:none"
         d="M 54.333,0 0,0 l 0,54.333 54.333,0 0,-54.333 z" />
    </pattern>
    <pattern
       id="pattern2835"
       height="54.333"
       width="54.333"
       y="0"
       x="0"
       patternUnits="userSpaceOnUse"
       patternTransform="matrix(0.554794,0,0,0.554794,-3701.3591,3641.5275)">
      <path
         id="path2833"
         style="fill:#f89826;fill-opacity:1;fill-rule:nonzero;stroke:none"
         d="M 54.333,0 0,0 l 0,54.333 54.333,0 0,-54.333 z" />
    </pattern>
    <pattern
       id="pattern2847"
       height="54.333"
       width="54.333"
       y="0"
       x="0"
       patternUnits="userSpaceOnUse"
       patternTransform="matrix(0.554794,0,0,0.554794,-3701.3591,3641.5275)">
      <path
         id="path2845"
         style="fill:#f89826;fill-opacity:1;fill-rule:nonzero;stroke:none"
         d="M 54.333,0 0,0 l 0,54.333 54.333,0 0,-54.333 z" />
    </pattern>
    <pattern
       id="pattern2659-3"
       height="54.333"
       width="54.3335"
       y="0"
       x="0"
       patternUnits="userSpaceOnUse"
       patternTransform="matrix(0.554794,0,0,0.554794,-3721.6691,3641.5275)">
      <path
         id="path2657-6"
         style="fill:#1c7aab;fill-opacity:1;fill-rule:nonzero;stroke:none"
         d="M 54.333,0 0,0 l 0,54.333 54.333,0 0,-54.333 z" />
    </pattern>
    <pattern
       id="pattern2647-7"
       height="54.333"
       width="54.3335"
       y="0"
       x="0"
       patternUnits="userSpaceOnUse"
       patternTransform="matrix(0.554794,0,0,0.554794,-3721.6691,3641.5275)">
      <path
         id="path2645-5"
         style="fill:#1c7aab;fill-opacity:1;fill-rule:nonzero;stroke:none"
         d="M 54.333,0 0,0 l 0,54.333 54.333,0 0,-54.333 z" />
    </pattern>
    <pattern
       id="pattern2635-3"
       height="54.333"
       width="54.3335"
       y="0"
       x="0"
       patternUnits="userSpaceOnUse"
       patternTransform="matrix(0.554794,0,0,0.554794,-3721.6691,3641.5275)">
      <path
         id="path2633-5"
         style="fill:#1c7aab;fill-opacity:1;fill-rule:nonzero;stroke:none"
         d="M 54.333,0 0,0 l 0,54.333 54.333,0 0,-54.333 z" />
    </pattern>
    <pattern
       id="pattern2623-6"
       height="54.333"
       width="54.3335"
       y="0"
       x="0"
       patternUnits="userSpaceOnUse"
       patternTransform="matrix(0.554794,0,0,0.554794,-3721.6691,3641.5275)">
      <path
         id="path2621-2"
         style="fill:#1c7aab;fill-opacity:1;fill-rule:nonzero;stroke:none"
         d="M 54.333,0 0,0 l 0,54.333 54.333,0 0,-54.333 z" />
    </pattern>
    <pattern
       id="pattern2611-9"
       height="54.333"
       width="54.3335"
       y="0"
       x="0"
       patternUnits="userSpaceOnUse"
       patternTransform="matrix(0.554794,0,0,0.554794,-3721.6691,3641.5275)">
      <path
         id="path2609-1"
         style="fill:#1c7aab;fill-opacity:1;fill-rule:nonzero;stroke:none"
         d="M 54.333,0 0,0 l 0,54.333 54.333,0 0,-54.333 z" />
    </pattern>
  </defs>
  <sodipodi:namedview
     id="base"
     pagecolor="#ffffff"
     bordercolor="#666666"
     borderopacity="1.0"
     inkscape:pageopacity="0.0"
     inkscape:pageshadow="2"
     inkscape:zoom="0.5802204"
     inkscape:cx="1011.325"
     inkscape:cy="248.50434"
     inkscape:document-units="mm"
     inkscape:current-layer="layer1"
     showgrid="false"
     inkscape:window-width="1867"
     inkscape:window-height="1025"
     inkscape:window-x="53"
     inkscape:window-y="27"
     inkscape:window-maximized="1"
     units="px" />
  <metadata
     id="metadata5">
    <rdf:RDF>
      <cc:Work
         rdf:about="">
        <dc:format>image/svg+xml</dc:format>
        <dc:type
           rdf:resource="http://purl.org/dc/dcmitype/StillImage" />
        <dc:title></dc:title>
      </cc:Work>
    </rdf:RDF>
  </metadata>
  <g
     inkscape:label="Layer 1"
     inkscape:groupmode="layer"
     id="layer1"
     transform="translate(0,-175.29167)">
    <path
       d="m 369.60212,122.45555 h 1.06821 v 10.67894 h -1.06821 z"
       style="fill:#414142;fill-opacity:1;fill-rule:nonzero;stroke:none;stroke-width:0.35277778"
       id="path2479"
       inkscape:connector-curvature="0" />
    <g
       id="g2489"
       transform="matrix(0.35277777,0,0,-0.35277777,376.92476,126.72751)">
      <path
         d="m 0,0 c -2.084,0 -3.867,-0.738 -5.347,-2.219 -1.48,-1.479 -2.22,-3.262 -2.22,-5.346 0,-2.086 0.74,-3.87 2.22,-5.349 1.48,-1.481 3.263,-2.22 5.347,-2.22 2.086,0 3.869,0.739 5.347,2.22 1.481,1.479 2.221,3.263 2.221,5.349 0,2.084 -0.74,3.867 -2.221,5.346 C 3.869,-0.738 2.086,0 0,0 M 10.595,-18.161 H 7.568 v 3.188 C 7.542,-14.999 7.514,-15.026 7.487,-15.053 5.415,-17.125 2.92,-18.161 0,-18.161 c -2.933,0 -5.432,1.036 -7.496,3.108 -2.066,2.072 -3.098,4.568 -3.098,7.488 0,2.932 1.032,5.43 3.098,7.496 2.064,2.065 4.563,3.097 7.496,3.097 2.92,0 5.415,-1.029 7.487,-3.088 0.027,-0.041 0.055,-0.074 0.081,-0.1 v 3.188 h 3.027 z"
         style="fill:#414142;fill-opacity:1;fill-rule:nonzero;stroke:none"
         id="path2491"
         inkscape:connector-curvature="0" />
    </g>
    <g
       id="g2493"
       transform="matrix(0.35277777,0,0,-0.35277777,387.47695,135.26999)">
      <path
         d="M 0,0 C 2.017,0 3.027,1.009 3.027,3.026 V 36.212 H 6.054 V 3.026 C 6.054,-1.009 4.036,-3.027 0,-3.027 Z"
         style="fill:#414142;fill-opacity:1;fill-rule:nonzero;stroke:none"
         id="path2495"
         inkscape:connector-curvature="0" />
    </g>
    <g
       id="g2497"
       transform="matrix(0.35277777,0,0,-0.35277777,395.86762,126.72751)">
      <path
         d="m 0,0 c -2.086,0 -3.869,-0.738 -5.349,-2.219 -1.48,-1.479 -2.219,-3.262 -2.219,-5.346 0,-2.086 0.739,-3.87 2.219,-5.349 1.48,-1.481 3.263,-2.22 5.349,-2.22 2.084,0 3.867,0.739 5.347,2.22 1.48,1.479 2.22,3.263 2.22,5.349 0,2.084 -0.74,3.867 -2.22,5.346 C 3.867,-0.738 2.084,0 0,0 M 10.594,-18.161 H 7.567 v 3.188 C 7.54,-14.999 7.513,-15.026 7.486,-15.053 5.414,-17.125 2.918,-18.161 0,-18.161 c -2.935,0 -5.432,1.036 -7.498,3.108 -2.065,2.072 -3.098,4.568 -3.098,7.488 0,2.932 1.033,5.43 3.098,7.496 2.066,2.065 4.563,3.097 7.498,3.097 2.918,0 5.414,-1.029 7.486,-3.088 0.027,-0.041 0.054,-0.074 0.081,-0.1 v 3.188 h 3.027 z"
         style="fill:#414142;fill-opacity:1;fill-rule:nonzero;stroke:none"
         id="path2499"
         inkscape:connector-curvature="0" />
    </g>
    <g
       id="g2501"
       transform="matrix(0.35277777,0,0,-0.35277777,408.52938,125.65197)">
      <path
         d="M 0,0 H 3.027 V -21.189 H 0 v 3.147 c -0.025,-0.026 -0.047,-0.047 -0.06,-0.06 -2.073,-2.072 -4.575,-3.108 -7.507,-3.108 -2.92,0 -5.414,1.032 -7.486,3.098 -2.073,2.065 -3.108,4.563 -3.108,7.498 V 0 h 3.026 v -10.614 c 0,-2.086 0.74,-3.869 2.22,-5.349 1.481,-1.48 3.263,-2.22 5.348,-2.22 2.086,0 3.868,0.74 5.346,2.22 C -0.74,-14.483 0,-12.7 0,-10.614 Z"
         style="fill:#414142;fill-opacity:1;fill-rule:nonzero;stroke:none"
         id="path2503"
         inkscape:connector-curvature="0" />
    </g>
    <g
       id="g2505"
       transform="matrix(0.35277777,0,0,-0.35277777,413.18234,129.37543)">
      <path
         d="M 0,0 V -10.655 H -3.027 V 10.534 H 0 V 7.366 c 0.026,0.027 0.055,0.053 0.08,0.08 2.059,2.059 4.555,3.088 7.488,3.088 H 9.082 V 7.506 H 7.568 C 5.482,7.506 3.699,6.768 2.221,5.287 0.754,3.82 0.014,2.059 0,0"
         style="fill:#414142;fill-opacity:1;fill-rule:nonzero;stroke:none"
         id="path2507"
         inkscape:connector-curvature="0" />
    </g>
    <g
       id="g2509"
       transform="matrix(0.35277777,0,0,-0.35277777,422.33425,122.18483)">
      <path
         d="m 0,0 -2.56,1.618 -7.144,-11.437 0.045,-0.03 h -0.045 v -21.189 h 3.027 v 20.341 z"
         style="fill:#414142;fill-opacity:1;fill-rule:nonzero;stroke:none"
         id="path2511"
         inkscape:connector-curvature="0" />
    </g>
    <g
       id="g2513"
       transform="matrix(0.35277777,0,0,-0.35277777,426.22651,126.72751)">
      <path
         d="m 0,0 c -2.086,0 -3.868,-0.738 -5.347,-2.219 -1.48,-1.479 -2.22,-3.262 -2.22,-5.346 0,-2.086 0.74,-3.87 2.22,-5.349 1.479,-1.481 3.261,-2.22 5.347,-2.22 2.085,0 3.867,0.739 5.347,2.22 1.48,1.479 2.22,3.263 2.22,5.349 0,2.084 -0.74,3.867 -2.22,5.346 C 3.867,-0.738 2.085,0 0,0 M 10.594,-18.161 H 7.567 v 3.188 C 7.54,-14.999 7.514,-15.026 7.487,-15.053 5.415,-17.125 2.919,-18.161 0,-18.161 c -2.933,0 -5.433,1.036 -7.497,3.108 -2.065,2.072 -3.098,4.568 -3.098,7.488 0,2.932 1.033,5.43 3.098,7.496 2.064,2.065 4.564,3.097 7.497,3.097 2.919,0 5.415,-1.029 7.487,-3.088 0.027,-0.041 0.053,-0.074 0.08,-0.1 v 3.188 h 3.027 z"
         style="fill:#414142;fill-opacity:1;fill-rule:nonzero;stroke:none"
         id="path2515"
         inkscape:connector-curvature="0" />
    </g>
    <g
       id="g2517"
       transform="matrix(0.35277777,0,0,-0.35277777,369.6236,122.04255)">
      <path
         d="m 0,0 -8.483,31.72 -24.306,23.545 3.636,11.362 h 7.265 l 5.366,-3.934 2.426,0.808 -6.55,6.551 0.811,13.79 4.201,7.076 h 6.036 L 11.381,77.057 31.959,75.561 50.188,62.762 53.092,57.277 73.716,64.671 V 52.44 L 69.446,41.053 82.162,25.255 79.721,23.119 87.35,18.895 V 0.406 h -3.139 v 16.64 l -9.921,5.492 3.538,3.096 -11.949,14.845 4.699,12.531 v 7.202 l -18.989,-6.807 -3.823,7.221 -16.9,11.866 -20.531,1.494 -20.876,13.793 h -3.306 l -2.899,-4.883 -0.684,-11.621 9.146,-9.146 -8.785,-2.928 -5.846,4.287 h -3.946 L -29.205,56.165 -5.675,33.37 3.032,0.812 Z"
         style="fill:#414142;fill-opacity:1;fill-rule:nonzero;stroke:none"
         id="path2519"
         inkscape:connector-curvature="0" />
    </g>
    <g
       id="g2521"
       transform="matrix(0.35277777,0,0,-0.35277777,430.14633,122.04255)">
      <path
         d="M 0,0 -3.032,0.812 5.675,33.37 29.204,56.165 26.86,63.488 h -3.945 l -5.846,-4.287 -8.785,2.928 9.147,9.146 -0.685,11.621 -2.899,4.883 H 10.54 L -10.335,73.986 -30.866,72.492 -47.767,60.626 -51.589,53.405 -70.578,60.212 V 53.01 l 4.699,-12.531 -11.949,-14.845 3.538,-3.096 -9.921,-5.492 V 0.406 h -3.139 v 18.489 l 7.629,4.224 -2.441,2.136 12.716,15.798 -4.27,11.387 v 12.231 l 20.624,-7.394 2.904,5.485 18.228,12.799 20.578,1.496 20.98,13.861 h 6.036 l 4.201,-7.076 0.811,-13.79 -6.55,-6.551 2.426,-0.808 5.366,3.934 h 7.265 L 32.788,55.265 8.483,31.72 Z"
         style="fill:#414142;fill-opacity:1;fill-rule:nonzero;stroke:none"
         id="path2523"
         inkscape:connector-curvature="0" />
    </g>
    <g
       id="g2525"
       transform="matrix(0.35277777,0,0,-0.35277777,371.28258,122.42666)">
      <path
         d="m 0,0 c 0,-1.794 -1.455,-3.25 -3.25,-3.25 -1.794,0 -3.249,1.456 -3.249,3.25 0,1.794 1.455,3.249 3.249,3.249 C -1.455,3.249 0,1.794 0,0"
         style="fill:#ffffff;fill-opacity:1;fill-rule:nonzero;stroke:none"
         id="path2527"
         inkscape:connector-curvature="0" />
    </g>
    <g
       id="g2529"
       transform="matrix(0.35277777,0,0,-0.35277777,370.13623,121.67598)">
      <path
         d="m 0,0 c -1.173,0 -2.128,-0.954 -2.128,-2.128 0,-1.174 0.955,-2.129 2.128,-2.129 1.174,0 2.128,0.955 2.128,2.129 C 2.128,-0.954 1.174,0 0,0 m 0,-6.499 c -2.41,0 -4.371,1.961 -4.371,4.371 0,2.41 1.961,4.37 4.371,4.37 2.41,0 4.371,-1.96 4.371,-4.37 0,-2.41 -1.961,-4.371 -4.371,-4.371"
         style="fill:#1c7aab;fill-opacity:1;fill-rule:nonzero;stroke:none"
         id="path2531"
         inkscape:connector-curvature="0" />
    </g>
    <g
       id="g2533"
       transform="matrix(0.35277777,0,0,-0.35277777,390.18236,122.42666)">
      <path
         d="m 0,0 c 0,-1.794 -1.455,-3.25 -3.25,-3.25 -1.794,0 -3.249,1.456 -3.249,3.25 0,1.794 1.455,3.249 3.249,3.249 C -1.455,3.249 0,1.794 0,0"
         style="fill:#ffffff;fill-opacity:1;fill-rule:nonzero;stroke:none"
         id="path2535"
         inkscape:connector-curvature="0" />
    </g>
    <g
       id="g2537"
       transform="matrix(0.35277777,0,0,-0.35277777,389.03601,121.67598)">
      <path
         d="m 0,0 c -1.174,0 -2.128,-0.954 -2.128,-2.128 0,-1.174 0.954,-2.129 2.128,-2.129 1.174,0 2.128,0.955 2.128,2.129 C 2.128,-0.954 1.174,0 0,0 m 0,-6.499 c -2.41,0 -4.371,1.961 -4.371,4.371 0,2.41 1.961,4.37 4.371,4.37 2.41,0 4.371,-1.96 4.371,-4.37 0,-2.41 -1.961,-4.371 -4.371,-4.371"
         style="fill:#1c7aab;fill-opacity:1;fill-rule:nonzero;stroke:none"
         id="path2539"
         inkscape:connector-curvature="0" />
    </g>
    <g
       id="g2541"
       transform="matrix(0.35277777,0,0,-0.35277777,401.0313,122.42666)">
      <path
         d="m 0,0 c 0,-1.794 -1.455,-3.25 -3.25,-3.25 -1.794,0 -3.249,1.456 -3.249,3.25 0,1.794 1.455,3.249 3.249,3.249 C -1.455,3.249 0,1.794 0,0"
         style="fill:#ffffff;fill-opacity:1;fill-rule:nonzero;stroke:none"
         id="path2543"
         inkscape:connector-curvature="0" />
    </g>
    <g
       id="g2545"
       transform="matrix(0.35277777,0,0,-0.35277777,399.88495,121.67598)">
      <path
         d="m 0,0 c -1.174,0 -2.128,-0.954 -2.128,-2.128 0,-1.174 0.954,-2.129 2.128,-2.129 1.174,0 2.128,0.955 2.128,2.129 C 2.128,-0.954 1.174,0 0,0 m 0,-6.499 c -2.41,0 -4.371,1.961 -4.371,4.371 0,2.41 1.961,4.37 4.371,4.37 2.41,0 4.371,-1.96 4.371,-4.37 0,-2.41 -1.961,-4.371 -4.371,-4.371"
         style="fill:#1c7aab;fill-opacity:1;fill-rule:nonzero;stroke:none"
         id="path2547"
         inkscape:connector-curvature="0" />
    </g>
    <g
       id="g2549"
       transform="matrix(0.35277777,0,0,-0.35277777,422.6667,122.42666)">
      <path
         d="m 0,0 c 0,-1.794 -1.454,-3.25 -3.249,-3.25 -1.795,0 -3.249,1.456 -3.249,3.25 0,1.794 1.454,3.249 3.249,3.249 C -1.454,3.249 0,1.794 0,0"
         style="fill:#ffffff;fill-opacity:1;fill-rule:nonzero;stroke:none"
         id="path2551"
         inkscape:connector-curvature="0" />
    </g>
    <g
       id="g2553"
       transform="matrix(0.35277777,0,0,-0.35277777,421.52049,121.67598)">
      <path
         d="m 0,0 c -1.173,0 -2.128,-0.954 -2.128,-2.128 0,-1.174 0.955,-2.129 2.128,-2.129 1.174,0 2.128,0.955 2.128,2.129 C 2.128,-0.954 1.174,0 0,0 m 0,-6.499 c -2.41,0 -4.37,1.961 -4.37,4.371 0,2.41 1.96,4.37 4.37,4.37 2.41,0 4.37,-1.96 4.37,-4.37 0,-2.41 -1.96,-4.371 -4.37,-4.371"
         style="fill:#1c7aab;fill-opacity:1;fill-rule:nonzero;stroke:none"
         id="path2555"
         inkscape:connector-curvature="0" />
    </g>
    <g
       id="g2557"
       transform="matrix(0.35277777,0,0,-0.35277777,430.59454,122.42666)">
      <path
         d="m 0,0 c 0,-1.794 -1.455,-3.25 -3.25,-3.25 -1.795,0 -3.25,1.456 -3.25,3.25 0,1.794 1.455,3.249 3.25,3.249 C -1.455,3.249 0,1.794 0,0"
         style="fill:#ffffff;fill-opacity:1;fill-rule:nonzero;stroke:none"
         id="path2559"
         inkscape:connector-curvature="0" />
    </g>
    <g
       id="g2561"
       transform="matrix(0.35277777,0,0,-0.35277777,429.44801,121.67598)">
      <path
         d="m 0,0 c -1.174,0 -2.129,-0.954 -2.129,-2.128 0,-1.174 0.955,-2.129 2.129,-2.129 1.174,0 2.129,0.955 2.129,2.129 C 2.129,-0.954 1.174,0 0,0 m 0,-6.499 c -2.41,0 -4.371,1.961 -4.371,4.371 0,2.41 1.961,4.37 4.371,4.37 2.41,0 4.371,-1.96 4.371,-4.37 0,-2.41 -1.961,-4.371 -4.371,-4.371"
         style="fill:#1c7aab;fill-opacity:1;fill-rule:nonzero;stroke:none"
         id="path2563"
         inkscape:connector-curvature="0" />
    </g>
    <g
       id="g2667"
       transform="matrix(0.35277777,0,0,-0.35277777,432.26265,203.94401)">
      <path
         d="m 0,0 c 0,-44.735 -36.264,-81 -80.999,-81 -44.735,0 -81,36.265 -81,81 0,44.735 36.265,81 81,81 C -36.264,81 0,44.735 0,0"
         style="fill:#414142;fill-opacity:1;fill-rule:nonzero;stroke:none"
         id="path2669"
         inkscape:connector-curvature="0" />
    </g>
    <g
       id="g2749"
       transform="matrix(0.35277777,0,0,-0.35277777,499.52537,203.94401)">
      <path
         d="m 0,0 c 0,-44.735 -36.264,-81 -80.998,-81 -44.736,0 -81,36.265 -81,81 0,44.735 36.264,81 81,81 C -36.264,81 0,44.735 0,0"
         style="fill:url(#pattern2753);fill-opacity:1;fill-rule:nonzero;stroke:none"
         id="path2755"
         inkscape:connector-curvature="0" />
    </g>
    <path
       d="m 454.1499,209.10483 h 0.59266 v 5.92419 h -0.59266 z"
       style="fill:#ffffff;fill-opacity:1;fill-rule:nonzero;stroke:none;stroke-width:0.35277778"
       id="path2757"
       inkscape:connector-curvature="0" />
    <g
       id="g2759"
       transform="matrix(0.35277777,0,0,-0.35277777,458.21249,211.47482)">
      <path
         d="m 0,0 c -1.156,0 -2.145,-0.41 -2.966,-1.231 -0.821,-0.82 -1.231,-1.81 -1.231,-2.966 0,-1.157 0.41,-2.146 1.231,-2.968 0.821,-0.821 1.81,-1.231 2.966,-1.231 1.158,0 2.147,0.41 2.967,1.231 0.822,0.822 1.232,1.811 1.232,2.968 0,1.156 -0.41,2.146 -1.232,2.966 C 2.147,-0.41 1.158,0 0,0 m 5.879,-10.076 h -1.68 v 1.769 C 4.185,-8.321 4.169,-8.336 4.154,-8.351 3.006,-9.501 1.621,-10.076 0,-10.076 c -1.626,0 -3.013,0.575 -4.158,1.725 -1.147,1.149 -1.719,2.535 -1.719,4.154 0,1.627 0.572,3.012 1.719,4.159 C -3.013,1.107 -1.626,1.68 0,1.68 1.621,1.68 3.006,1.109 4.154,-0.033 4.169,-0.055 4.185,-0.074 4.199,-0.089 V 1.68 h 1.68 z"
         style="fill:#ffffff;fill-opacity:1;fill-rule:nonzero;stroke:none"
         id="path2761"
         inkscape:connector-curvature="0" />
    </g>
    <g
       id="g2763"
       transform="matrix(0.35277777,0,0,-0.35277777,464.06708,216.21386)">
      <path
         d="M 0,0 C 1.119,0 1.68,0.56 1.68,1.679 V 20.09 H 3.358 V 1.679 c 0,-2.24 -1.12,-3.36 -3.358,-3.36 z"
         style="fill:#ffffff;fill-opacity:1;fill-rule:nonzero;stroke:none"
         id="path2765"
         inkscape:connector-curvature="0" />
    </g>
    <g
       id="g2767"
       transform="matrix(0.35277777,0,0,-0.35277777,468.72209,211.47482)">
      <path
         d="m 0,0 c -1.156,0 -2.146,-0.41 -2.967,-1.231 -0.822,-0.82 -1.232,-1.81 -1.232,-2.966 0,-1.157 0.41,-2.146 1.232,-2.968 0.821,-0.821 1.811,-1.231 2.967,-1.231 1.156,0 2.145,0.41 2.967,1.231 0.82,0.822 1.232,1.811 1.232,2.968 0,1.156 -0.412,2.146 -1.232,2.966 C 2.145,-0.41 1.156,0 0,0 M 5.877,-10.076 H 4.199 v 1.769 C 4.184,-8.321 4.168,-8.336 4.154,-8.351 3.004,-9.501 1.619,-10.076 0,-10.076 c -1.629,0 -3.014,0.575 -4.159,1.725 -1.147,1.149 -1.719,2.535 -1.719,4.154 0,1.627 0.572,3.012 1.719,4.159 1.145,1.145 2.53,1.718 4.159,1.718 1.619,0 3.004,-0.571 4.154,-1.713 0.014,-0.022 0.03,-0.041 0.045,-0.056 V 1.68 h 1.678 z"
         style="fill:#ffffff;fill-opacity:1;fill-rule:nonzero;stroke:none"
         id="path2769"
         inkscape:connector-curvature="0" />
    </g>
    <g
       id="g2771"
       transform="matrix(0.35277777,0,0,-0.35277777,475.74664,210.8781)">
      <path
         d="M 0,0 H 1.68 V -11.756 H 0 v 1.747 c -0.014,-0.015 -0.025,-0.026 -0.033,-0.033 -1.151,-1.15 -2.537,-1.725 -4.164,-1.725 -1.619,0 -3.004,0.573 -4.155,1.719 -1.149,1.145 -1.724,2.531 -1.724,4.159 V 0 h 1.68 v -5.889 c 0,-1.156 0.412,-2.146 1.232,-2.967 0.821,-0.822 1.809,-1.231 2.967,-1.231 1.156,0 2.145,0.409 2.965,1.231 C -0.41,-8.035 0,-7.045 0,-5.889 Z"
         style="fill:#ffffff;fill-opacity:1;fill-rule:nonzero;stroke:none"
         id="path2773"
         inkscape:connector-curvature="0" />
    </g>
    <g
       id="g2775"
       transform="matrix(0.35277777,0,0,-0.35277777,478.3284,212.94379)">
      <path
         d="M 0,0 V -5.912 H -1.68 V 5.844 H 0 V 4.087 C 0.014,4.101 0.029,4.116 0.043,4.131 1.186,5.273 2.57,5.844 4.197,5.844 H 5.039 V 4.164 H 4.197 C 3.041,4.164 2.053,3.754 1.23,2.933 0.418,2.119 0.008,1.142 0,0"
         style="fill:#ffffff;fill-opacity:1;fill-rule:nonzero;stroke:none"
         id="path2777"
         inkscape:connector-curvature="0" />
    </g>
    <g
       id="g2779"
       transform="matrix(0.35277777,0,0,-0.35277777,483.40579,208.95472)">
      <path
         d="m 0,0 -1.42,0.899 -3.963,-6.346 0.024,-0.016 h -0.024 v -11.756 h 1.678 v 11.285 z"
         style="fill:#ffffff;fill-opacity:1;fill-rule:nonzero;stroke:none"
         id="path2781"
         inkscape:connector-curvature="0" />
    </g>
    <g
       id="g2783"
       transform="matrix(0.35277777,0,0,-0.35277777,485.56518,211.47482)">
      <path
         d="m 0,0 c -1.158,0 -2.146,-0.41 -2.967,-1.231 -0.822,-0.82 -1.232,-1.81 -1.232,-2.966 0,-1.157 0.41,-2.146 1.232,-2.968 0.821,-0.821 1.809,-1.231 2.967,-1.231 1.156,0 2.145,0.41 2.967,1.231 0.82,0.822 1.23,1.811 1.23,2.968 0,1.156 -0.41,2.146 -1.23,2.966 C 2.145,-0.41 1.156,0 0,0 m 5.877,-10.076 h -1.68 v 1.769 C 4.182,-8.321 4.168,-8.336 4.152,-8.351 3.004,-9.501 1.619,-10.076 0,-10.076 c -1.627,0 -3.016,0.575 -4.16,1.725 -1.145,1.149 -1.719,2.535 -1.719,4.154 0,1.627 0.574,3.012 1.719,4.159 1.144,1.145 2.533,1.718 4.16,1.718 1.619,0 3.004,-0.571 4.152,-1.713 0.016,-0.022 0.03,-0.041 0.045,-0.056 V 1.68 h 1.68 z"
         style="fill:#ffffff;fill-opacity:1;fill-rule:nonzero;stroke:none"
         id="path2785"
         inkscape:connector-curvature="0" />
    </g>
    <g
       id="g2787"
       transform="matrix(0.35277777,0,0,-0.35277777,454.1621,208.87549)">
      <path
         d="m 0,0 -4.706,17.597 -13.484,13.063 2.016,6.304 h 4.03 l 2.977,-2.183 1.348,0.448 -3.635,3.635 0.449,7.651 2.332,3.926 h 3.348 l 11.639,-7.691 11.417,-0.83 10.112,-7.1 1.612,-3.043 11.442,4.101 v -6.785 l -2.369,-6.317 7.055,-8.765 -1.354,-1.185 4.233,-2.344 V 0.226 H 46.72 v 9.23 l -5.504,3.047 1.963,1.718 -6.63,8.237 2.608,6.951 v 3.995 L 28.622,29.628 26.5,33.634 17.124,40.218 5.733,41.046 -5.847,48.699 h -1.836 l -1.608,-2.709 -0.378,-6.448 5.074,-5.073 -4.875,-1.626 -3.243,2.38 h -2.188 L -16.202,31.16 -3.147,18.513 1.683,0.45 Z"
         style="fill:#ffffff;fill-opacity:1;fill-rule:nonzero;stroke:none"
         id="path2789"
         inkscape:connector-curvature="0" />
    </g>
    <g
       id="g2791"
       transform="matrix(0.35277777,0,0,-0.35277777,487.7397,208.87549)">
      <path
         d="m 0,0 -1.682,0.45 4.83,18.063 13.055,12.647 -1.301,4.063 H 12.713 L 9.469,32.843 4.596,34.469 9.67,39.542 9.291,45.99 7.682,48.699 H 5.848 l -11.582,-7.653 -11.391,-0.828 -9.375,-6.584 -2.121,-4.006 -10.535,3.776 v -3.995 l 2.607,-6.951 -6.63,-8.237 1.963,-1.718 -5.503,-3.047 v -9.23 h -1.742 v 10.256 l 4.232,2.344 -1.353,1.185 7.055,8.765 -2.369,6.317 v 6.785 l 11.441,-4.101 1.611,3.043 10.114,7.1 11.416,0.83 11.638,7.691 h 3.35 l 2.33,-3.926 0.449,-7.651 -3.633,-3.635 1.346,-0.448 2.977,2.183 h 4.031 L 18.191,30.66 4.707,17.597 Z"
         style="fill:#ffffff;fill-opacity:1;fill-rule:nonzero;stroke:none"
         id="path2793"
         inkscape:connector-curvature="0" />
    </g>
    <g
       id="g2795"
       transform="matrix(0.35277777,0,0,-0.35277777,455.08229,209.08874)">
      <path
         d="m 0,0 c 0,-0.995 -0.807,-1.803 -1.802,-1.803 -0.995,0 -1.803,0.808 -1.803,1.803 0,0.996 0.808,1.803 1.803,1.803 C -0.807,1.803 0,0.996 0,0"
         style="fill:url(#pattern2799);fill-opacity:1;fill-rule:nonzero;stroke:none"
         id="path2801"
         inkscape:connector-curvature="0" />
    </g>
    <g
       id="g2803"
       transform="matrix(0.35277777,0,0,-0.35277777,454.44665,208.67204)">
      <path
         d="m 0,0 c -0.651,0 -1.181,-0.53 -1.181,-1.181 0,-0.652 0.53,-1.181 1.181,-1.181 0.651,0 1.181,0.529 1.181,1.181 C 1.181,-0.53 0.651,0 0,0 m 0,-3.606 c -1.337,0 -2.425,1.088 -2.425,2.425 0,1.337 1.088,2.425 2.425,2.425 1.337,0 2.425,-1.088 2.425,-2.425 0,-1.337 -1.088,-2.425 -2.425,-2.425"
         style="fill:#ffffff;fill-opacity:1;fill-rule:nonzero;stroke:none"
         id="path2805"
         inkscape:connector-curvature="0" />
    </g>
    <g
       id="g2807"
       transform="matrix(0.35277777,0,0,-0.35277777,465.56776,209.08874)">
      <path
         d="m 0,0 c 0,-0.995 -0.806,-1.803 -1.803,-1.803 -0.995,0 -1.801,0.808 -1.801,1.803 0,0.996 0.806,1.803 1.801,1.803 C -0.806,1.803 0,0.996 0,0"
         style="fill:url(#pattern2811);fill-opacity:1;fill-rule:nonzero;stroke:none"
         id="path2813"
         inkscape:connector-curvature="0" />
    </g>
    <g
       id="g2815"
       transform="matrix(0.35277777,0,0,-0.35277777,464.93181,208.67204)">
      <path
         d="m 0,0 c -0.65,0 -1.181,-0.53 -1.181,-1.181 0,-0.652 0.531,-1.181 1.181,-1.181 0.652,0 1.182,0.529 1.182,1.181 C 1.182,-0.53 0.652,0 0,0 m 0,-3.606 c -1.337,0 -2.425,1.088 -2.425,2.425 0,1.337 1.088,2.425 2.425,2.425 1.338,0 2.426,-1.088 2.426,-2.425 0,-1.337 -1.088,-2.425 -2.426,-2.425"
         style="fill:#ffffff;fill-opacity:1;fill-rule:nonzero;stroke:none"
         id="path2817"
         inkscape:connector-curvature="0" />
    </g>
    <g
       id="g2819"
       transform="matrix(0.35277777,0,0,-0.35277777,471.58703,209.08874)">
      <path
         d="m 0,0 c 0,-0.995 -0.808,-1.803 -1.803,-1.803 -0.996,0 -1.803,0.808 -1.803,1.803 0,0.996 0.807,1.803 1.803,1.803 C -0.808,1.803 0,0.996 0,0"
         style="fill:url(#pattern2823);fill-opacity:1;fill-rule:nonzero;stroke:none"
         id="path2825"
         inkscape:connector-curvature="0" />
    </g>
    <g
       id="g2827"
       transform="matrix(0.35277777,0,0,-0.35277777,470.95108,208.67204)">
      <path
         d="m 0,0 c -0.652,0 -1.181,-0.53 -1.181,-1.181 0,-0.652 0.529,-1.181 1.181,-1.181 0.651,0 1.182,0.529 1.182,1.181 C 1.182,-0.53 0.651,0 0,0 m 0,-3.606 c -1.338,0 -2.425,1.088 -2.425,2.425 0,1.337 1.087,2.425 2.425,2.425 1.338,0 2.424,-1.088 2.424,-2.425 0,-1.337 -1.086,-2.425 -2.424,-2.425"
         style="fill:#ffffff;fill-opacity:1;fill-rule:nonzero;stroke:none"
         id="path2829"
         inkscape:connector-curvature="0" />
    </g>
    <g
       id="g2831"
       transform="matrix(0.35277777,0,0,-0.35277777,483.59044,209.08874)">
      <path
         d="m 0,0 c 0,-0.995 -0.809,-1.803 -1.803,-1.803 -0.996,0 -1.804,0.808 -1.804,1.803 0,0.996 0.808,1.803 1.804,1.803 C -0.809,1.803 0,0.996 0,0"
         style="fill:url(#pattern2835);fill-opacity:1;fill-rule:nonzero;stroke:none"
         id="path2837"
         inkscape:connector-curvature="0" />
    </g>
    <g
       id="g2839"
       transform="matrix(0.35277777,0,0,-0.35277777,482.95449,208.67204)">
      <path
         d="m 0,0 c -0.65,0 -1.182,-0.53 -1.182,-1.181 0,-0.652 0.532,-1.181 1.182,-1.181 0.65,0 1.18,0.529 1.18,1.181 C 1.18,-0.53 0.65,0 0,0 m 0,-3.606 c -1.338,0 -2.426,1.088 -2.426,2.425 0,1.337 1.088,2.425 2.426,2.425 1.336,0 2.424,-1.088 2.424,-2.425 0,-1.337 -1.088,-2.425 -2.424,-2.425"
         style="fill:#ffffff;fill-opacity:1;fill-rule:nonzero;stroke:none"
         id="path2841"
         inkscape:connector-curvature="0" />
    </g>
    <g
       id="g2843"
       transform="matrix(0.35277777,0,0,-0.35277777,487.98845,209.08874)">
      <path
         d="m 0,0 c 0,-0.995 -0.807,-1.803 -1.803,-1.803 -0.996,0 -1.804,0.808 -1.804,1.803 0,0.996 0.808,1.803 1.804,1.803 C -0.807,1.803 0,0.996 0,0"
         style="fill:url(#pattern2847);fill-opacity:1;fill-rule:nonzero;stroke:none"
         id="path2849"
         inkscape:connector-curvature="0" />
    </g>
    <g
       id="g2851"
       transform="matrix(0.35277777,0,0,-0.35277777,487.3525,208.67204)">
      <path
         d="m 0,0 c -0.652,0 -1.182,-0.53 -1.182,-1.181 0,-0.652 0.53,-1.181 1.182,-1.181 0.65,0 1.182,0.529 1.182,1.181 C 1.182,-0.53 0.65,0 0,0 m 0,-3.606 c -1.338,0 -2.426,1.088 -2.426,2.425 0,1.337 1.088,2.425 2.426,2.425 1.336,0 2.424,-1.088 2.424,-2.425 0,-1.337 -1.088,-2.425 -2.424,-2.425"
         style="fill:#ffffff;fill-opacity:1;fill-rule:nonzero;stroke:none"
         id="path2853"
         inkscape:connector-curvature="0" />
    </g>
    <path
       d="M 275.41842,487.35519 H 1.8002323 V 363.30659 H 275.41842 Z"
       style="fill:#1c7aab;fill-opacity:1;fill-rule:nonzero;stroke:none;stroke-width:3.39081979"
       id="path2855"
       inkscape:connector-curvature="0" />
    <path
       d="M 272.80952,298.11316 H -1.264671 V 174.06456 H 272.80952 Z"
       style="fill:#58595b;fill-opacity:1;fill-rule:nonzero;stroke:none;stroke-width:3.39364338"
       id="path2857"
       inkscape:connector-curvature="0" />
    <path
       d="m 435.67069,295.83313 h -19.16747 v -19.16748 h 19.16747 z"
       style="fill:#f89826;fill-opacity:1;fill-rule:nonzero;stroke:none;stroke-width:0.35277778"
       id="path2859"
       inkscape:connector-curvature="0" />
    <text
       style="font-variant:normal;font-weight:normal;font-stretch:normal;font-size:4.23333311px;font-family:Dominik;-inkscape-font-specification:Dominik;writing-mode:lr-tb;fill:#231f20;fill-opacity:1;fill-rule:nonzero;stroke:none;stroke-width:0.35277778"
       id="text2863"
       x="316.41083"
       y="340.81299">
      <tspan
         x="316.41083 319.31064 320.35205 323.25189 326.15173 329.05154 331.02429 333.92413 335.58359 336.625 339.52481 340.72284 342.28073 345.18478 348.08463 352.84711 353.88852 356.78836 357.82974 360.72958 362.28745 363.97656 366.87637 369.77621 372.67606 373.71744 376.61728 378.59003"
         y="340.81299"
         sodipodi:role="line"
         id="tspan2861"
         style="stroke-width:0.35277778">Tipografía: Dominik regular</tspan>
    </text>
    <g
       id="g2565"
       transform="matrix(0.35277777,0,0,-0.35277777,163.80579,426.17871)">
      <path
         d="m 0,0 c 0,-44.735 -36.264,-81 -81,-81 -44.734,0 -80.999,36.265 -80.999,81 0,44.735 36.265,81 80.999,81 C -36.264,81 0,44.735 0,0"
         style="fill:#1c7aab;fill-opacity:1;fill-rule:nonzero;stroke:none"
         id="path2567"
         inkscape:connector-curvature="0" />
    </g>
    <path
       d="m 118.43038,431.33953 h 0.59267 v 5.92419 h -0.59267 z"
       style="fill:#ffffff;fill-opacity:1;fill-rule:nonzero;stroke:none;stroke-width:0.35277778"
       id="path2569"
       inkscape:connector-curvature="0" />
    <g
       id="g2571"
       transform="matrix(0.35277777,0,0,-0.35277777,122.4929,433.70952)">
      <path
         d="m 0,0 c -1.156,0 -2.146,-0.41 -2.966,-1.231 -0.822,-0.82 -1.232,-1.81 -1.232,-2.966 0,-1.157 0.41,-2.146 1.232,-2.968 0.82,-0.821 1.81,-1.231 2.966,-1.231 1.157,0 2.146,0.41 2.967,1.231 0.821,0.822 1.232,1.811 1.232,2.968 0,1.156 -0.411,2.146 -1.232,2.966 C 2.146,-0.41 1.157,0 0,0 M 5.878,-10.076 H 4.199 v 1.769 C 4.184,-8.321 4.168,-8.336 4.154,-8.351 3.004,-9.501 1.62,-10.076 0,-10.076 c -1.627,0 -3.013,0.575 -4.159,1.725 -1.146,1.149 -1.718,2.535 -1.718,4.154 0,1.627 0.572,3.012 1.718,4.159 1.146,1.145 2.532,1.718 4.159,1.718 1.62,0 3.004,-0.571 4.154,-1.713 0.014,-0.022 0.03,-0.041 0.045,-0.056 V 1.68 h 1.679 z"
         style="fill:#ffffff;fill-opacity:1;fill-rule:nonzero;stroke:none"
         id="path2573"
         inkscape:connector-curvature="0" />
    </g>
    <g
       id="g2575"
       transform="matrix(0.35277777,0,0,-0.35277777,128.34712,438.44856)">
      <path
         d="M 0,0 C 1.119,0 1.68,0.56 1.68,1.679 V 20.09 H 3.358 V 1.679 c 0,-2.24 -1.119,-3.36 -3.358,-3.36 z"
         style="fill:#ffffff;fill-opacity:1;fill-rule:nonzero;stroke:none"
         id="path2577"
         inkscape:connector-curvature="0" />
    </g>
    <g
       id="g2579"
       transform="matrix(0.35277777,0,0,-0.35277777,133.00215,433.70952)">
      <path
         d="m 0,0 c -1.157,0 -2.146,-0.41 -2.967,-1.231 -0.822,-0.82 -1.231,-1.81 -1.231,-2.966 0,-1.157 0.409,-2.146 1.231,-2.968 0.821,-0.821 1.81,-1.231 2.967,-1.231 1.157,0 2.146,0.41 2.967,1.231 0.821,0.822 1.232,1.811 1.232,2.968 0,1.156 -0.411,2.146 -1.232,2.966 C 2.146,-0.41 1.157,0 0,0 M 5.877,-10.076 H 4.199 v 1.769 C 4.184,-8.321 4.169,-8.336 4.153,-8.351 3.004,-9.501 1.619,-10.076 0,-10.076 c -1.628,0 -3.013,0.575 -4.159,1.725 -1.146,1.149 -1.719,2.535 -1.719,4.154 0,1.627 0.573,3.012 1.719,4.159 C -3.013,1.107 -1.628,1.68 0,1.68 1.619,1.68 3.004,1.109 4.153,-0.033 4.169,-0.055 4.184,-0.074 4.199,-0.089 V 1.68 h 1.678 z"
         style="fill:#ffffff;fill-opacity:1;fill-rule:nonzero;stroke:none"
         id="path2581"
         inkscape:connector-curvature="0" />
    </g>
    <g
       id="g2583"
       transform="matrix(0.35277777,0,0,-0.35277777,140.02705,433.1128)">
      <path
         d="M 0,0 H 1.679 V -11.756 H 0 v 1.747 c -0.015,-0.015 -0.026,-0.026 -0.033,-0.033 -1.151,-1.15 -2.539,-1.725 -4.166,-1.725 -1.619,0 -3.004,0.573 -4.153,1.719 -1.15,1.145 -1.724,2.531 -1.724,4.159 V 0 h 1.679 v -5.889 c 0,-1.156 0.411,-2.146 1.232,-2.967 0.821,-0.822 1.81,-1.231 2.966,-1.231 1.157,0 2.146,0.409 2.967,1.231 C -0.411,-8.035 0,-7.045 0,-5.889 Z"
         style="fill:#ffffff;fill-opacity:1;fill-rule:nonzero;stroke:none"
         id="path2585"
         inkscape:connector-curvature="0" />
    </g>
    <g
       id="g2587"
       transform="matrix(0.35277777,0,0,-0.35277777,142.60846,435.17849)">
      <path
         d="M 0,0 V -5.912 H -1.68 V 5.844 H 0 V 4.087 C 0.014,4.101 0.03,4.116 0.044,4.131 1.187,5.273 2.571,5.844 4.198,5.844 H 5.039 V 4.164 H 4.198 C 3.042,4.164 2.052,3.754 1.231,2.933 0.418,2.119 0.007,1.142 0,0"
         style="fill:#ffffff;fill-opacity:1;fill-rule:nonzero;stroke:none"
         id="path2589"
         inkscape:connector-curvature="0" />
    </g>
    <g
       id="g2591"
       transform="matrix(0.35277777,0,0,-0.35277777,147.68568,431.18942)">
      <path
         d="m 0,0 -1.42,0.899 -3.963,-6.346 0.025,-0.016 h -0.025 v -11.756 h 1.679 v 11.285 z"
         style="fill:#ffffff;fill-opacity:1;fill-rule:nonzero;stroke:none"
         id="path2593"
         inkscape:connector-curvature="0" />
    </g>
    <g
       id="g2595"
       transform="matrix(0.35277777,0,0,-0.35277777,149.84505,433.70952)">
      <path
         d="m 0,0 c -1.157,0 -2.146,-0.41 -2.966,-1.231 -0.822,-0.82 -1.232,-1.81 -1.232,-2.966 0,-1.157 0.41,-2.146 1.232,-2.968 0.82,-0.821 1.809,-1.231 2.966,-1.231 1.157,0 2.146,0.41 2.967,1.231 0.821,0.822 1.232,1.811 1.232,2.968 0,1.156 -0.411,2.146 -1.232,2.966 C 2.146,-0.41 1.157,0 0,0 M 5.877,-10.076 H 4.199 v 1.769 C 4.183,-8.321 4.169,-8.336 4.154,-8.351 3.004,-9.501 1.619,-10.076 0,-10.076 c -1.626,0 -3.014,0.575 -4.159,1.725 -1.145,1.149 -1.718,2.535 -1.718,4.154 0,1.627 0.573,3.012 1.718,4.159 C -3.014,1.107 -1.626,1.68 0,1.68 1.619,1.68 3.004,1.109 4.154,-0.033 4.169,-0.055 4.183,-0.074 4.199,-0.089 V 1.68 h 1.678 z"
         style="fill:#ffffff;fill-opacity:1;fill-rule:nonzero;stroke:none"
         id="path2597"
         inkscape:connector-curvature="0" />
    </g>
    <g
       id="g2599"
       transform="matrix(0.35277777,0,0,-0.35277777,118.44234,431.11019)">
      <path
         d="m 0,0 -4.707,17.597 -13.484,13.063 2.017,6.304 h 4.03 l 2.977,-2.183 1.347,0.448 -3.634,3.635 0.45,7.651 2.33,3.926 h 3.349 L 6.314,42.75 17.73,41.92 l 10.114,-7.1 1.611,-3.043 11.442,4.101 v -6.785 l -2.369,-6.317 7.055,-8.765 -1.354,-1.185 4.231,-2.344 V 0.226 h -1.74 v 9.23 l -5.505,3.047 1.964,1.718 -6.63,8.237 2.607,6.951 v 3.995 L 28.621,29.628 26.5,33.634 17.125,40.218 5.734,41.046 -5.848,48.699 h -1.834 l -1.609,-2.709 -0.379,-6.448 5.074,-5.073 -4.874,-1.626 -3.243,2.38 h -2.189 L -16.203,31.16 -3.148,18.513 1.682,0.45 Z"
         style="fill:#ffffff;fill-opacity:1;fill-rule:nonzero;stroke:none"
         id="path2601"
         inkscape:connector-curvature="0" />
    </g>
    <g
       id="g2603"
       transform="matrix(0.35277777,0,0,-0.35277777,152.01976,431.11019)">
      <path
         d="m 0,0 -1.682,0.45 4.83,18.063 13.055,12.647 -1.301,4.063 H 12.713 L 9.47,32.843 4.596,34.469 9.671,39.542 9.291,45.99 7.682,48.699 H 5.848 l -11.581,-7.653 -11.392,-0.828 -9.375,-6.584 -2.121,-4.006 -10.535,3.776 v -3.995 l 2.607,-6.951 -6.63,-8.237 1.964,-1.718 -5.505,-3.047 v -9.23 h -1.74 v 10.256 l 4.231,2.344 -1.354,1.185 7.055,8.765 -2.369,6.317 v 6.785 l 11.442,-4.101 1.611,3.043 10.113,7.1 11.417,0.83 11.639,7.691 h 3.349 l 2.33,-3.926 0.45,-7.651 -3.633,-3.635 1.346,-0.448 2.977,2.183 h 4.03 L 18.191,30.66 4.707,17.597 Z"
         style="fill:#ffffff;fill-opacity:1;fill-rule:nonzero;stroke:none"
         id="path2605"
         inkscape:connector-curvature="0" />
    </g>
    <g
       id="g2607"
       transform="matrix(0.35277777,0,0,-0.35277777,119.36267,431.32344)">
      <path
         d="m 0,0 c 0,-0.995 -0.807,-1.803 -1.803,-1.803 -0.995,0 -1.802,0.808 -1.802,1.803 0,0.996 0.807,1.803 1.802,1.803 C -0.807,1.803 0,0.996 0,0"
         style="fill:url(#pattern2611-9);fill-opacity:1;fill-rule:nonzero;stroke:none"
         id="path2613"
         inkscape:connector-curvature="0" />
    </g>
    <g
       id="g2615"
       transform="matrix(0.35277777,0,0,-0.35277777,118.72653,430.90674)">
      <path
         d="m 0,0 c -0.65,0 -1.18,-0.53 -1.18,-1.181 0,-0.652 0.53,-1.181 1.18,-1.181 0.651,0 1.181,0.529 1.181,1.181 C 1.181,-0.53 0.651,0 0,0 m 0,-3.606 c -1.337,0 -2.424,1.088 -2.424,2.425 0,1.337 1.087,2.425 2.424,2.425 1.337,0 2.425,-1.088 2.425,-2.425 0,-1.337 -1.088,-2.425 -2.425,-2.425"
         style="fill:#ffffff;fill-opacity:1;fill-rule:nonzero;stroke:none"
         id="path2617"
         inkscape:connector-curvature="0" />
    </g>
    <g
       id="g2619"
       transform="matrix(0.35277777,0,0,-0.35277777,129.84816,431.32344)">
      <path
         d="m 0,0 c 0,-0.995 -0.807,-1.803 -1.803,-1.803 -0.996,0 -1.803,0.808 -1.803,1.803 0,0.996 0.807,1.803 1.803,1.803 C -0.807,1.803 0,0.996 0,0"
         style="fill:url(#pattern2623-6);fill-opacity:1;fill-rule:nonzero;stroke:none"
         id="path2625"
         inkscape:connector-curvature="0" />
    </g>
    <g
       id="g2627"
       transform="matrix(0.35277777,0,0,-0.35277777,129.21205,430.90674)">
      <path
         d="m 0,0 c -0.651,0 -1.181,-0.53 -1.181,-1.181 0,-0.652 0.53,-1.181 1.181,-1.181 0.651,0 1.181,0.529 1.181,1.181 C 1.181,-0.53 0.651,0 0,0 m 0,-3.606 c -1.337,0 -2.425,1.088 -2.425,2.425 0,1.337 1.088,2.425 2.425,2.425 1.337,0 2.425,-1.088 2.425,-2.425 0,-1.337 -1.088,-2.425 -2.425,-2.425"
         style="fill:#ffffff;fill-opacity:1;fill-rule:nonzero;stroke:none"
         id="path2629"
         inkscape:connector-curvature="0" />
    </g>
    <g
       id="g2631"
       transform="matrix(0.35277777,0,0,-0.35277777,135.86727,431.32344)">
      <path
         d="m 0,0 c 0,-0.995 -0.808,-1.803 -1.804,-1.803 -0.995,0 -1.802,0.808 -1.802,1.803 0,0.996 0.807,1.803 1.802,1.803 C -0.808,1.803 0,0.996 0,0"
         style="fill:url(#pattern2635-3);fill-opacity:1;fill-rule:nonzero;stroke:none"
         id="path2637"
         inkscape:connector-curvature="0" />
    </g>
    <g
       id="g2639"
       transform="matrix(0.35277777,0,0,-0.35277777,135.23095,430.90674)">
      <path
         d="m 0,0 c -0.651,0 -1.181,-0.53 -1.181,-1.181 0,-0.652 0.53,-1.181 1.181,-1.181 0.652,0 1.182,0.529 1.182,1.181 C 1.182,-0.53 0.652,0 0,0 m 0,-3.606 c -1.337,0 -2.425,1.088 -2.425,2.425 0,1.337 1.088,2.425 2.425,2.425 1.337,0 2.425,-1.088 2.425,-2.425 0,-1.337 -1.088,-2.425 -2.425,-2.425"
         style="fill:#ffffff;fill-opacity:1;fill-rule:nonzero;stroke:none"
         id="path2641"
         inkscape:connector-curvature="0" />
    </g>
    <g
       id="g2643"
       transform="matrix(0.35277777,0,0,-0.35277777,147.87012,431.32344)">
      <path
         d="m 0,0 c 0,-0.995 -0.807,-1.803 -1.802,-1.803 -0.996,0 -1.803,0.808 -1.803,1.803 0,0.996 0.807,1.803 1.803,1.803 C -0.807,1.803 0,0.996 0,0"
         style="fill:url(#pattern2647-7);fill-opacity:1;fill-rule:nonzero;stroke:none"
         id="path2649"
         inkscape:connector-curvature="0" />
    </g>
    <g
       id="g2651"
       transform="matrix(0.35277777,0,0,-0.35277777,147.23435,430.90674)">
      <path
         d="m 0,0 c -0.651,0 -1.181,-0.53 -1.181,-1.181 0,-0.652 0.53,-1.181 1.181,-1.181 0.651,0 1.18,0.529 1.18,1.181 C 1.18,-0.53 0.651,0 0,0 m 0,-3.606 c -1.337,0 -2.425,1.088 -2.425,2.425 0,1.337 1.088,2.425 2.425,2.425 1.337,0 2.424,-1.088 2.424,-2.425 0,-1.337 -1.087,-2.425 -2.424,-2.425"
         style="fill:#ffffff;fill-opacity:1;fill-rule:nonzero;stroke:none"
         id="path2653"
         inkscape:connector-curvature="0" />
    </g>
    <g
       id="g2655"
       transform="matrix(0.35277777,0,0,-0.35277777,152.26868,431.32344)">
      <path
         d="m 0,0 c 0,-0.995 -0.808,-1.803 -1.804,-1.803 -0.996,0 -1.803,0.808 -1.803,1.803 0,0.996 0.807,1.803 1.803,1.803 C -0.808,1.803 0,0.996 0,0"
         style="fill:url(#pattern2659-3);fill-opacity:1;fill-rule:nonzero;stroke:none"
         id="path2661"
         inkscape:connector-curvature="0" />
    </g>
    <g
       id="g2663"
       transform="matrix(0.35277777,0,0,-0.35277777,151.63236,430.90674)">
      <path
         d="m 0,0 c -0.651,0 -1.181,-0.53 -1.181,-1.181 0,-0.652 0.53,-1.181 1.181,-1.181 0.651,0 1.182,0.529 1.182,1.181 C 1.182,-0.53 0.651,0 0,0 m 0,-3.606 c -1.337,0 -2.425,1.088 -2.425,2.425 0,1.337 1.088,2.425 2.425,2.425 1.337,0 2.425,-1.088 2.425,-2.425 0,-1.337 -1.088,-2.425 -2.425,-2.425"
         style="fill:#ffffff;fill-opacity:1;fill-rule:nonzero;stroke:none"
         id="path2665"
         inkscape:connector-curvature="0" />
    </g>
    <path
       d="m 120.91256,233.3552 h 0.59267 v 5.92419 h -0.59267 z"
       style="fill:#ffffff;fill-opacity:1;fill-rule:nonzero;stroke:none;stroke-width:0.35277778"
       id="path2671"
       inkscape:connector-curvature="0" />
    <g
       id="g2673"
       transform="matrix(0.35277777,0,0,-0.35277777,124.97515,235.72518)">
      <path
         d="m 0,0 c -1.156,0 -2.145,-0.41 -2.966,-1.231 -0.821,-0.82 -1.232,-1.81 -1.232,-2.966 0,-1.157 0.411,-2.146 1.232,-2.968 0.821,-0.821 1.81,-1.231 2.966,-1.231 1.158,0 2.147,0.41 2.967,1.231 0.822,0.822 1.232,1.811 1.232,2.968 0,1.156 -0.41,2.146 -1.232,2.966 C 2.147,-0.41 1.158,0 0,0 M 5.878,-10.076 H 4.199 v 1.769 C 4.184,-8.321 4.168,-8.336 4.154,-8.351 3.005,-9.501 1.62,-10.076 0,-10.076 c -1.626,0 -3.013,0.575 -4.159,1.725 -1.146,1.149 -1.718,2.535 -1.718,4.154 0,1.627 0.572,3.012 1.718,4.159 1.146,1.145 2.533,1.718 4.159,1.718 1.62,0 3.005,-0.571 4.154,-1.713 0.014,-0.022 0.03,-0.041 0.045,-0.056 V 1.68 h 1.679 z"
         style="fill:#ffffff;fill-opacity:1;fill-rule:nonzero;stroke:none"
         id="path2675"
         inkscape:connector-curvature="0" />
    </g>
    <g
       id="g2677"
       transform="matrix(0.35277777,0,0,-0.35277777,130.8294,240.46422)">
      <path
         d="M 0,0 C 1.12,0 1.68,0.56 1.68,1.679 V 20.09 H 3.359 V 1.679 c 0,-2.24 -1.12,-3.36 -3.359,-3.36 z"
         style="fill:#ffffff;fill-opacity:1;fill-rule:nonzero;stroke:none"
         id="path2679"
         inkscape:connector-curvature="0" />
    </g>
    <g
       id="g2681"
       transform="matrix(0.35277777,0,0,-0.35277777,135.48474,235.72518)">
      <path
         d="m 0,0 c -1.157,0 -2.147,-0.41 -2.968,-1.231 -0.821,-0.82 -1.231,-1.81 -1.231,-2.966 0,-1.157 0.41,-2.146 1.231,-2.968 0.821,-0.821 1.811,-1.231 2.968,-1.231 1.156,0 2.145,0.41 2.966,1.231 0.821,0.822 1.232,1.811 1.232,2.968 0,1.156 -0.411,2.146 -1.232,2.966 C 2.145,-0.41 1.156,0 0,0 M 5.876,-10.076 H 4.198 v 1.769 C 4.183,-8.321 4.168,-8.336 4.153,-8.351 3.003,-9.501 1.619,-10.076 0,-10.076 c -1.629,0 -3.014,0.575 -4.16,1.725 -1.146,1.149 -1.718,2.535 -1.718,4.154 0,1.627 0.572,3.012 1.718,4.159 1.146,1.145 2.531,1.718 4.16,1.718 1.619,0 3.003,-0.571 4.153,-1.713 0.015,-0.022 0.03,-0.041 0.045,-0.056 V 1.68 h 1.678 z"
         style="fill:#ffffff;fill-opacity:1;fill-rule:nonzero;stroke:none"
         id="path2683"
         inkscape:connector-curvature="0" />
    </g>
    <g
       id="g2685"
       transform="matrix(0.35277777,0,0,-0.35277777,142.50929,235.12846)">
      <path
         d="M 0,0 H 1.68 V -11.756 H 0 v 1.747 c -0.014,-0.015 -0.026,-0.026 -0.033,-0.033 -1.151,-1.15 -2.537,-1.725 -4.165,-1.725 -1.619,0 -3.003,0.573 -4.154,1.719 -1.15,1.145 -1.724,2.531 -1.724,4.159 V 0 h 1.68 v -5.889 c 0,-1.156 0.411,-2.146 1.231,-2.967 0.821,-0.822 1.81,-1.231 2.967,-1.231 1.157,0 2.145,0.409 2.966,1.231 C -0.411,-8.035 0,-7.045 0,-5.889 Z"
         style="fill:#ffffff;fill-opacity:1;fill-rule:nonzero;stroke:none"
         id="path2687"
         inkscape:connector-curvature="0" />
    </g>
    <g
       id="g2689"
       transform="matrix(0.35277777,0,0,-0.35277777,145.0907,237.19416)">
      <path
         d="M 0,0 V -5.912 H -1.68 V 5.844 H 0 V 4.087 C 0.015,4.101 0.03,4.116 0.044,4.131 1.187,5.273 2.571,5.844 4.198,5.844 H 5.039 V 4.164 H 4.198 C 3.041,4.164 2.053,3.754 1.231,2.933 0.418,2.119 0.008,1.142 0,0"
         style="fill:#ffffff;fill-opacity:1;fill-rule:nonzero;stroke:none"
         id="path2691"
         inkscape:connector-curvature="0" />
    </g>
    <g
       id="g2693"
       transform="matrix(0.35277777,0,0,-0.35277777,150.16808,233.20509)">
      <path
         d="m 0,0 -1.42,0.899 -3.963,-6.346 0.025,-0.016 h -0.025 v -11.756 h 1.679 v 11.285 z"
         style="fill:#ffffff;fill-opacity:1;fill-rule:nonzero;stroke:none"
         id="path2695"
         inkscape:connector-curvature="0" />
    </g>
    <g
       id="g2697"
       transform="matrix(0.35277777,0,0,-0.35277777,152.32748,235.72518)">
      <path
         d="m 0,0 c -1.157,0 -2.146,-0.41 -2.966,-1.231 -0.822,-0.82 -1.232,-1.81 -1.232,-2.966 0,-1.157 0.41,-2.146 1.232,-2.968 0.82,-0.821 1.809,-1.231 2.966,-1.231 1.157,0 2.146,0.41 2.967,1.231 0.821,0.822 1.231,1.811 1.231,2.968 0,1.156 -0.41,2.146 -1.231,2.966 C 2.146,-0.41 1.157,0 0,0 M 5.877,-10.076 H 4.198 v 1.769 C 4.183,-8.321 4.169,-8.336 4.153,-8.351 3.004,-9.501 1.619,-10.076 0,-10.076 c -1.627,0 -3.015,0.575 -4.16,1.725 -1.145,1.149 -1.718,2.535 -1.718,4.154 0,1.627 0.573,3.012 1.718,4.159 1.145,1.145 2.533,1.718 4.16,1.718 1.619,0 3.004,-0.571 4.153,-1.713 0.016,-0.022 0.03,-0.041 0.045,-0.056 V 1.68 h 1.679 z"
         style="fill:#ffffff;fill-opacity:1;fill-rule:nonzero;stroke:none"
         id="path2699"
         inkscape:connector-curvature="0" />
    </g>
    <g
       id="g2701"
       transform="matrix(0.35277777,0,0,-0.35277777,120.92459,233.12585)">
      <path
         d="m 0,0 -4.707,17.597 -13.483,13.063 2.016,6.304 h 4.03 l 2.977,-2.183 1.347,0.448 -3.635,3.635 0.451,7.651 2.331,3.926 h 3.348 l 11.639,-7.691 11.417,-0.83 10.112,-7.1 1.612,-3.043 11.442,4.101 v -6.785 l -2.369,-6.317 7.055,-8.765 -1.354,-1.185 4.232,-2.344 V 0.226 H 46.72 v 9.23 l -5.505,3.047 1.964,1.718 -6.63,8.237 2.608,6.951 v 3.995 L 28.622,29.628 26.5,33.634 17.125,40.218 5.734,41.046 -5.847,48.699 h -1.835 l -1.609,-2.709 -0.378,-6.448 5.074,-5.073 -4.875,-1.626 -3.243,2.38 h -2.189 L -16.202,31.16 -3.148,18.513 1.683,0.45 Z"
         style="fill:#ffffff;fill-opacity:1;fill-rule:nonzero;stroke:none"
         id="path2703"
         inkscape:connector-curvature="0" />
    </g>
    <g
       id="g2705"
       transform="matrix(0.35277777,0,0,-0.35277777,154.50201,233.12585)">
      <path
         d="M 0,0 -1.682,0.45 3.149,18.513 16.203,31.16 14.902,35.223 H 12.714 L 9.47,32.843 4.597,34.469 9.671,39.542 9.291,45.99 7.683,48.699 H 5.849 l -11.582,-7.653 -11.391,-0.828 -9.376,-6.584 -2.121,-4.006 -10.534,3.776 v -3.995 l 2.606,-6.951 -6.63,-8.237 1.963,-1.718 -5.503,-3.047 v -9.23 h -1.741 v 10.256 l 4.231,2.344 -1.353,1.185 7.055,8.765 -2.369,6.317 v 6.785 l 11.441,-4.101 1.611,3.043 10.114,7.1 11.416,0.83 11.639,7.691 h 3.349 l 2.331,-3.926 0.449,-7.651 -3.633,-3.635 1.346,-0.448 2.977,2.183 h 4.031 L 18.191,30.66 4.707,17.597 Z"
         style="fill:#ffffff;fill-opacity:1;fill-rule:nonzero;stroke:none"
         id="path2707"
         inkscape:connector-curvature="0" />
    </g>
    <g
       id="g2709"
       transform="matrix(0.35277777,0,0,-0.35277777,121.84494,233.3391)">
      <path
         d="m 0,0 c 0,-0.995 -0.808,-1.803 -1.802,-1.803 -0.996,0 -1.803,0.808 -1.803,1.803 0,0.996 0.807,1.803 1.803,1.803 C -0.808,1.803 0,0.996 0,0"
         style="fill:#414142;fill-opacity:1;fill-rule:nonzero;stroke:none"
         id="path2711"
         inkscape:connector-curvature="0" />
    </g>
    <g
       id="g2713"
       transform="matrix(0.35277777,0,0,-0.35277777,121.20915,232.9224)">
      <path
         d="m 0,0 c -0.651,0 -1.181,-0.53 -1.181,-1.181 0,-0.652 0.53,-1.181 1.181,-1.181 0.651,0 1.181,0.529 1.181,1.181 C 1.181,-0.53 0.651,0 0,0 m 0,-3.606 c -1.337,0 -2.425,1.088 -2.425,2.425 0,1.337 1.088,2.425 2.425,2.425 1.337,0 2.424,-1.088 2.424,-2.425 0,-1.337 -1.087,-2.425 -2.424,-2.425"
         style="fill:#ffffff;fill-opacity:1;fill-rule:nonzero;stroke:none"
         id="path2715"
         inkscape:connector-curvature="0" />
    </g>
    <g
       id="g2717"
       transform="matrix(0.35277777,0,0,-0.35277777,132.33043,233.3391)">
      <path
         d="m 0,0 c 0,-0.995 -0.806,-1.803 -1.803,-1.803 -0.995,0 -1.802,0.808 -1.802,1.803 0,0.996 0.807,1.803 1.802,1.803 C -0.806,1.803 0,0.996 0,0"
         style="fill:#414142;fill-opacity:1;fill-rule:nonzero;stroke:none"
         id="path2719"
         inkscape:connector-curvature="0" />
    </g>
    <g
       id="g2721"
       transform="matrix(0.35277777,0,0,-0.35277777,131.69445,232.9224)">
      <path
         d="m 0,0 c -0.651,0 -1.181,-0.53 -1.181,-1.181 0,-0.652 0.53,-1.181 1.181,-1.181 0.651,0 1.181,0.529 1.181,1.181 C 1.181,-0.53 0.651,0 0,0 m 0,-3.606 c -1.337,0 -2.425,1.088 -2.425,2.425 0,1.337 1.088,2.425 2.425,2.425 1.337,0 2.425,-1.088 2.425,-2.425 0,-1.337 -1.088,-2.425 -2.425,-2.425"
         style="fill:#ffffff;fill-opacity:1;fill-rule:nonzero;stroke:none"
         id="path2723"
         inkscape:connector-curvature="0" />
    </g>
    <g
       id="g2725"
       transform="matrix(0.35277777,0,0,-0.35277777,138.34933,233.3391)">
      <path
         d="m 0,0 c 0,-0.995 -0.807,-1.803 -1.803,-1.803 -0.996,0 -1.803,0.808 -1.803,1.803 0,0.996 0.807,1.803 1.803,1.803 C -0.807,1.803 0,0.996 0,0"
         style="fill:#414142;fill-opacity:1;fill-rule:nonzero;stroke:none"
         id="path2727"
         inkscape:connector-curvature="0" />
    </g>
    <g
       id="g2729"
       transform="matrix(0.35277777,0,0,-0.35277777,137.71338,232.9224)">
      <path
         d="m 0,0 c -0.651,0 -1.18,-0.53 -1.18,-1.181 0,-0.652 0.529,-1.181 1.18,-1.181 0.652,0 1.182,0.529 1.182,1.181 C 1.182,-0.53 0.652,0 0,0 m 0,-3.606 c -1.337,0 -2.424,1.088 -2.424,2.425 0,1.337 1.087,2.425 2.424,2.425 1.338,0 2.425,-1.088 2.425,-2.425 0,-1.337 -1.087,-2.425 -2.425,-2.425"
         style="fill:#ffffff;fill-opacity:1;fill-rule:nonzero;stroke:none"
         id="path2731"
         inkscape:connector-curvature="0" />
    </g>
    <g
       id="g2733"
       transform="matrix(0.35277777,0,0,-0.35277777,150.35273,233.3391)">
      <path
         d="m 0,0 c 0,-0.995 -0.808,-1.803 -1.803,-1.803 -0.996,0 -1.803,0.808 -1.803,1.803 0,0.996 0.807,1.803 1.803,1.803 C -0.808,1.803 0,0.996 0,0"
         style="fill:#414142;fill-opacity:1;fill-rule:nonzero;stroke:none"
         id="path2735"
         inkscape:connector-curvature="0" />
    </g>
    <g
       id="g2737"
       transform="matrix(0.35277777,0,0,-0.35277777,149.71678,232.9224)">
      <path
         d="m 0,0 c -0.65,0 -1.181,-0.53 -1.181,-1.181 0,-0.652 0.531,-1.181 1.181,-1.181 0.65,0 1.18,0.529 1.18,1.181 C 1.18,-0.53 0.65,0 0,0 m 0,-3.606 c -1.338,0 -2.425,1.088 -2.425,2.425 0,1.337 1.087,2.425 2.425,2.425 1.337,0 2.424,-1.088 2.424,-2.425 0,-1.337 -1.087,-2.425 -2.424,-2.425"
         style="fill:#ffffff;fill-opacity:1;fill-rule:nonzero;stroke:none"
         id="path2739"
         inkscape:connector-curvature="0" />
    </g>
    <g
       id="g2741"
       transform="matrix(0.35277777,0,0,-0.35277777,154.75111,233.3391)">
      <path
         d="m 0,0 c 0,-0.995 -0.808,-1.803 -1.804,-1.803 -0.996,0 -1.803,0.808 -1.803,1.803 0,0.996 0.807,1.803 1.803,1.803 C -0.808,1.803 0,0.996 0,0"
         style="fill:#414142;fill-opacity:1;fill-rule:nonzero;stroke:none"
         id="path2743"
         inkscape:connector-curvature="0" />
    </g>
    <g
       id="g2745"
       transform="matrix(0.35277777,0,0,-0.35277777,154.11479,232.9224)">
      <path
         d="m 0,0 c -0.651,0 -1.182,-0.53 -1.182,-1.181 0,-0.652 0.531,-1.181 1.182,-1.181 0.65,0 1.182,0.529 1.182,1.181 C 1.182,-0.53 0.65,0 0,0 m 0,-3.606 c -1.338,0 -2.426,1.088 -2.426,2.425 0,1.337 1.088,2.425 2.426,2.425 1.337,0 2.425,-1.088 2.425,-2.425 0,-1.337 -1.088,-2.425 -2.425,-2.425"
         style="fill:#ffffff;fill-opacity:1;fill-rule:nonzero;stroke:none"
         id="path2747"
         inkscape:connector-curvature="0" />
    </g>
  </g>
</svg>
